HIERARCHY
ROOT Hips
{
	OFFSET -3.958830 18.904000 13.208200
	CHANNELS 6 Xposition Yposition Zposition Zrotation Yrotation Xrotation 
	JOINT LHipJoint
	{
		OFFSET 0.000000 0.000000 0.000000
		CHANNELS 3 Zrotation Yrotation Xrotation
		JOINT LeftUpLeg
		{
			OFFSET 1.800000 -1.400000 0.085000
			CHANNELS 3 Zrotation Yrotation Xrotation
			JOINT LeftLeg
			{
				OFFSET 2.215000 -6.000000 0.000000
				CHANNELS 3 Zrotation Yrotation Xrotation
				JOINT LeftFoot
				{
					OFFSET 2.500000 -6.900000 0.000000
					CHANNELS 3 Zrotation Yrotation Xrotation
					JOINT LeftToeBase
					{
						OFFSET 0.200000 -0.500000 1.950000
						CHANNELS 3 Zrotation Yrotation Xrotation
						End Site
						{
							OFFSET 0.000000 0.000000 0.000000
						}
					}
				}
			}
		}
	}
	JOINT RHipJoint
	{
		OFFSET 0.000000 0.000000 0.000000
		CHANNELS 3 Zrotation Yrotation Xrotation
		JOINT RightUpLeg
		{
			OFFSET -1.800000 -1.400000 0.085000
			CHANNELS 3 Zrotation Yrotation Xrotation
			JOINT RightLeg
			{
				OFFSET -2.215000 -6.000000 0.000000
				CHANNELS 3 Zrotation Yrotation Xrotation
				JOINT RightFoot
				{
					OFFSET -2.500000 -6.900000 0.000000
					CHANNELS 3 Zrotation Yrotation Xrotation
					JOINT RightToeBase
					{
						OFFSET -0.200000 -0.500000 1.950000
						CHANNELS 3 Zrotation Yrotation Xrotation
						End Site
						{
							OFFSET 0.000000 0.000000 0.000000
						}
					}
				}
			}
		}
	}
	JOINT LowerBack
	{
		OFFSET 0.000000 0.000000 0.000000
		CHANNELS 3 Zrotation Yrotation Xrotation
		JOINT Spine
		{
			OFFSET -0.087000 1.940000 -0.288900
			CHANNELS 3 Zrotation Yrotation Xrotation
			JOINT Spine1
			{
				OFFSET 0.000000 1.950000 0.060000
				CHANNELS 3 Zrotation Yrotation Xrotation
				JOINT Neck
				{
					OFFSET 0.000000 0.000000 0.000000
					CHANNELS 3 Zrotation Yrotation Xrotation
					JOINT Neck1
					{
						OFFSET 0.000000 1.600000 0.340000
						CHANNELS 3 Zrotation Yrotation Xrotation
						JOINT Head
						{
							OFFSET 0.000000 1.667000 -0.240000
							CHANNELS 3 Zrotation Yrotation Xrotation
							End Site
							{
								OFFSET 0.000000 0.000000 0.000000
							}
						}
					}
				}
				JOINT LeftShoulder
				{
					OFFSET 0.000000 0.000000 0.000000
					CHANNELS 3 Zrotation Yrotation Xrotation
					JOINT LeftArm
					{
						OFFSET 2.700000 1.550000 -0.730000
						CHANNELS 3 Zrotation Yrotation Xrotation
						JOINT LeftForeArm
						{
							OFFSET 5.450000 0.000000 0.000000
							CHANNELS 3 Zrotation Yrotation Xrotation
							JOINT LeftHand
							{
								OFFSET 3.450000 0.000000 0.000000
								CHANNELS 3 Zrotation Yrotation Xrotation
								JOINT LeftHandIndex1
								{
									OFFSET 0.750000 0.000000 0.000000
									CHANNELS 3 Zrotation Yrotation Xrotation
									End Site
									{
										OFFSET 0.000000 0.000000 0.000000
									}
								}
							}
						}
					}
				}
				JOINT RightShoulder
				{
					OFFSET 0.000000 0.000000 0.000000
					CHANNELS 3 Zrotation Yrotation Xrotation
					JOINT RightArm
					{
						OFFSET -2.700000 1.550000 -0.730000
						CHANNELS 3 Zrotation Yrotation Xrotation
						JOINT RightForeArm
						{
							OFFSET -5.450000 0.000000 0.000000
							CHANNELS 3 Zrotation Yrotation Xrotation
							JOINT RightHand
							{
								OFFSET -3.450000 0.000000 0.000000
								CHANNELS 3 Zrotation Yrotation Xrotation
								JOINT RightHandIndex1
								{
									OFFSET -0.750000 0.000000 0.000000
									CHANNELS 3 Zrotation Yrotation Xrotation
									End Site
									{
										OFFSET 0.000000 0.000000 0.000000
									}
								}
							}
						}
					}
				}
			}
		}
	}
}
MOTION
Frames: 7
Frame Time: 0.016667
1.620240 16.698940 0.307460 -0.367122 7.543527 7.473474 -15.503642 13.578368 2.734401 5.043160 -2.637899 1.257412 -13.100373 9.532031 18.242766 0.163898 6.805225 2.648424 0.100710 -0.399560 -0.024970 18.276199 -8.437395 3.852052 16.201997 6.387121 -32.104535 6.769346 -1.780083 1.503689 0.395331 -1.274347 4.231546 -0.111030 0.720750 0.190600 -3.166953 -5.462315 -7.591770 10.691687 -7.730888 9.053680 -8.018162 -5.681598 6.082292 1.004299 -7.161725 -9.892179 -16.132848 0.532281 24.203267 1.733710 -5.079370 3.352040 -2.618763 3.356791 3.538488 -65.567982 -26.419478 14.907017 -54.068209 -78.113732 37.250283 -3.928705 3.567328 0.266030 0.403060 -0.468660 0.282270 0.853961 -2.933546 5.300043 58.572830 -20.216404 -14.778906 11.083357 -2.215430 -1.701728 2.360680 -1.018224 -0.346980 0.270190 0.145940 -0.105880 
1.609680 16.712350 0.433860 -0.093793 4.401874 6.235594 -15.504530 13.704371 2.860370 4.847393 -2.892492 1.257781 -13.624552 10.304419 21.324812 0.327667 7.071991 2.499812 0.162230 -0.322850 0.047770 18.224395 -8.513375 3.874207 16.184221 6.185190 -30.667904 6.611200 -2.105889 3.829262 0.306165 -1.244579 4.214364 -0.138140 0.569510 0.176610 -3.069279 -5.591820 -7.829189 9.250089 -6.793049 11.793924 -7.013233 -4.662051 4.405508 1.379065 -7.852463 -10.522036 -18.872243 1.558842 26.290371 2.970450 -4.989960 1.418430 -4.128096 2.557845 3.072772 -63.644318 -25.544625 11.266277 -43.026112 -71.851057 25.713736 -3.728536 3.542046 0.344860 0.268940 -0.342830 0.268560 1.954713 -0.992411 6.282194 59.062349 -20.652449 -15.717614 11.888971 1.279170 -1.690927 2.372631 -1.001663 -0.272200 0.222900 0.080960 -0.110260 
1.611700 16.732790 0.547080 0.474171 1.587086 4.967297 -15.513129 13.753269 3.034097 4.829091 -3.584087 0.281187 -15.051120 11.568948 25.492267 0.486883 7.616060 2.241014 0.234530 -0.249100 0.129350 18.165979 -8.603989 3.834349 15.239316 5.903986 -29.581739 7.122174 -2.596516 6.434322 0.205371 -1.305110 4.150676 -0.147680 0.422900 0.181360 -2.944624 -5.615209 -8.048254 7.774803 -5.940395 14.321376 -6.181012 -3.754832 3.064568 1.879585 -8.261986 -10.896473 -21.390763 2.921165 28.956002 3.495630 -4.371150 -0.780630 -5.866110 1.896535 2.368401 -62.508475 -24.531992 8.098979 -33.958299 -64.279697 16.639196 -3.596731 3.467524 0.440690 0.150930 -0.225460 0.248460 2.940674 0.618950 7.086680 59.858688 -20.239114 -16.570219 12.700195 5.214793 -1.535353 2.347450 -1.016492 -0.213130 0.172290 0.033360 -0.135690 
1.594680 16.740970 0.644690 1.161167 -0.440195 4.195601 -15.545442 13.692397 3.222323 5.338462 -5.017676 -2.714358 -16.427457 13.324752 31.571239 0.646288 8.514079 1.880328 0.269480 -0.227600 0.199090 18.102454 -8.625583 3.794909 14.248434 5.941734 -29.309741 7.860710 -3.106054 9.056474 0.132381 -1.403890 4.075236 -0.150120 0.342300 0.176570 -2.778468 -5.588749 -8.230119 5.722010 -5.264914 16.356519 -4.740527 -3.123603 2.135315 1.968690 -8.419108 -11.003318 -22.494254 4.032719 30.534521 3.749140 -3.573080 -3.013900 -6.990052 1.229346 1.998801 -62.212118 -22.882912 5.241931 -29.485195 -57.831296 11.783343 -3.543365 3.372506 0.526110 0.076050 -0.154610 0.221230 4.103578 2.082552 7.404871 60.528458 -18.424506 -16.718690 12.681267 7.985770 -1.271499 2.330235 -1.023099 -0.209480 0.171660 0.019210 -0.169800 
1.576500 16.735380 0.732390 1.245610 -1.684151 3.687889 -15.567883 13.476971 3.461054 7.040670 -7.095331 -7.477171 -17.033823 15.466860 39.332446 0.893689 9.701033 1.430918 0.324300 -0.179820 0.293980 18.070824 -8.573104 3.781544 13.315848 6.448540 -29.881069 9.328615 -3.913485 12.662843 0.043065 -1.651229 3.953543 -0.145220 0.245320 0.182870 -2.683834 -5.425771 -8.434996 4.765280 -4.824704 18.025148 -3.687538 -2.642736 1.584812 2.266043 -8.116914 -10.815440 -22.027834 4.110923 32.171864 2.358440 -2.520040 -4.258320 -8.426052 0.576801 1.386953 -61.831026 -21.417018 2.819634 -25.701506 -51.025063 8.127437 -3.503885 3.306197 0.566280 0.021830 -0.085230 0.205730 4.962279 3.149470 7.704405 61.967386 -16.902773 -17.665611 12.487458 13.286013 -0.942841 2.291651 -1.097569 -0.178130 0.136990 -0.032750 -0.199440 
1.572930 16.700570 0.834870 0.929545 -1.082302 3.165716 -15.569887 13.072473 3.892304 9.827637 -9.921250 -13.284784 -17.489067 18.287079 48.705482 1.248022 11.377172 0.878106 0.328640 -0.156300 0.320540 18.097074 -8.445440 3.666805 11.799661 6.742478 -30.386814 11.386062 -5.019813 15.883257 -0.048343 -2.038085 3.821147 -0.146090 0.224320 0.164240 -2.732028 -5.222913 -8.666073 5.323565 -5.449302 19.712764 -3.636553 -3.033289 0.906421 2.512835 -7.857328 -10.624643 -21.392203 4.418258 33.242432 1.480920 -1.542140 -5.288650 -9.325536 0.080897 0.916819 -61.248185 -19.647047 0.651717 -23.019517 -44.796870 5.631440 -3.512639 3.193542 0.587180 0.006900 -0.051700 0.201390 5.280089 3.616573 7.742774 63.093671 -15.573229 -18.566027 14.174930 17.535548 -0.558056 2.240980 -1.119854 -0.179240 0.167840 -0.047460 -0.206170 
1.572170 16.636850 0.917000 0.934088 -1.952502 3.063533 -15.608615 12.446362 4.520668 12.708719 -12.282404 -20.021449 -18.909679 22.400039 57.726284 1.705841 13.304617 0.297460 0.346130 -0.133050 0.349560 18.139230 -8.194235 3.586195 10.956452 7.452280 -31.655922 12.306200 -6.063236 19.722676 -0.146920 -2.482390 3.648502 -0.144630 0.193610 0.179010 -2.753766 -4.888835 -8.988821 5.391009 -5.392826 21.278673 -3.775994 -2.726434 -0.024472 2.698773 -7.390191 -10.379188 -20.179248 4.516650 34.268277 0.530350 -0.544960 -5.864670 -9.487363 0.003348 0.586772 -60.874099 -17.938068 -0.895207 -20.586484 -39.577592 3.812321 -3.528554 3.141763 0.602690 0.000440 -0.020650 0.194660 4.981432 3.728797 7.511798 64.924409 -13.768992 -19.276368 15.579857 21.464470 -0.080653 2.201525 -1.179652 -0.163300 0.154510 -0.058840 -0.217850 
